<svg xmlns:xlink="http://www.w3.org/1999/xlink" style="fill-rule:evenodd;" version="1.1" id="glass" viewBox="0 0 64 64" xmlns="http://www.w3.org/2000/svg">
        <path stroke-width=".6" stroke="#000" d="M32.007 30.505c1.3.105 1.819.14 2.175 1.3.357 1.162 1.4 5.932 3.798 9.052 4.197 5.252 6.918 4.952 14.983 3.882 8.065-1.07 7.652-13.64 7.722-14.836a1.735 1.735 0 011.07-1.44.427.427 0 00.245-.4v-2.245a.427.427 0 00-.364-.42c-1.49-.23-7.323-1.09-11.723-1.35-5.078-.3-15.157.896-15.157.896h-5.477s-10.072-1.196-15.157-.895c-5.085.3-12.08 1.398-12.08 1.398L2 28.364a1.847 1.847 0 011.329 1.539c.084 1.196-.343 13.786 7.694 14.857 8.037 1.07 10.8 1.398 14.983-3.882 2.392-3.12 3.413-7.813 3.798-9.052.384-1.238.902-1.196 2.203-1.322zm23.991 10.142c-1.832 2.175-5.155 2.798-6.742 2.86-2.644.085-6.233.385-9.01-3.07-2.643-3.316-3.937-8.953-3.965-10.702-.042-2.476 3.028-2.798 3.028-2.798 1.4-.426 5.722-.7 9.352-.594 3.63.105 8.75 0 9.436 2.098 1.189 3.938-.518 10.352-2.099 12.22v-.014zM5.924 28.407c.7-2.1 5.805-2.008 9.436-2.1 3.63-.09 7.939.169 9.352.595 0 0 3.07.343 3.028 2.798 0 1.749-1.3 7.387-3.973 10.716-2.798 3.455-6.358 3.162-9.009 3.07-1.588-.048-4.896-.699-6.743-2.86-1.573-1.833-3.287-8.247-2.091-12.22z"></path>
    </svg>
    