<svg xmlns:xlink="http://www.w3.org/1999/xlink" style="fill-rule:evenodd;" version="1.1" id="hand-shake" viewBox="0 0 64 64" xmlns="http://www.w3.org/2000/svg">
        <path d="M30.477 10h3.046v6.094h-3.046V10zM37.904 17.173l4.309-4.308 2.154 2.154-4.308 4.309-2.155-2.155zM19.625 15.017l2.154-2.154 4.309 4.308-2.155 2.155-4.308-4.309zM44.926 28.281A16.845 16.845 0 0032 22.188a16.845 16.845 0 00-12.926 6.093H6v18.282h13.074A16.845 16.845 0 0032 52.656c4.987 0 9.763-2.264 12.926-6.093H58V28.28H44.926zM32 49.61c-7.717 0-11.252-5.945-11.426-6.093H9.047V31.328h11.527c.186-.162 3.507-5.778 10.872-6.08l-7.866 7.865 1.077 1.077a7.592 7.592 0 005.387 2.228c1.92 0 3.84-.722 5.317-2.162l6.944 10.683A13.784 13.784 0 0132 49.61zm22.953-6.093h-9.939l-4.088-6.289c.378.057.763.087 1.152.087a7.567 7.567 0 005.386-2.231l-2.154-2.155a4.54 4.54 0 01-3.232 1.339 4.54 4.54 0 01-3.232-1.339l-3.231-3.232-2.34 2.34a4.578 4.578 0 01-5.201.892l7.273-7.273c5.463 1.386 7.828 5.43 8.079 5.673h11.527v12.188z"></path>
    </svg>
    