<svg xmlns:xlink="http://www.w3.org/1999/xlink" style="fill-rule:evenodd;" version="1.1" id="warranty" viewBox="0 0 32 32" xmlns="http://www.w3.org/2000/svg">
        <path d="M24.977 10.516c-.011-.579-.022-1.125-.022-1.654a.75.75 0 00-.75-.75c-3.206 0-5.648-.921-7.683-2.9a.75.75 0 00-1.045 0c-2.035 1.979-4.476 2.9-7.683 2.9a.75.75 0 00-.75.75c0 .53-.01 1.076-.02 1.654-.104 5.382-.244 12.754 8.73 15.864a.75.75 0 00.491 0c8.975-3.11 8.835-10.482 8.732-15.864zM16 24.876c-7.697-2.796-7.58-8.92-7.477-14.331.006-.325.012-.64.016-.948 3.003-.127 5.405-1.037 7.46-2.828 2.057 1.79 4.459 2.701 7.462 2.828.004.308.01.623.017.947.103 5.41.219 11.536-7.478 14.332z"></path>
        <path d="M18.582 13.106l-3.62 3.619-1.544-1.544a.75.75 0 00-1.06 1.06l2.075 2.075a.747.747 0 001.06 0l4.149-4.15a.75.75 0 10-1.06-1.06z"></path>
    </svg>
    